<?xml version="1.0" ?><!DOCTYPE svg  PUBLIC '-//W3C//DTD SVG 1.1//EN'  'http://www.w3.org/Graphics/SVG/1.1/DTD/svg11.dtd'><svg height="100%" style="fill-rule:evenodd;clip-rule:evenodd;stroke-linejoin:round;stroke-miterlimit:1.41421;" version="1.1" viewBox="0 0 101 126" width="100%" xml:space="preserve" xmlns="http://www.w3.org/2000/svg" xmlns:serif="http://www.serif.com/" xmlns:xlink="http://www.w3.org/1999/xlink"><path d="M85.594,100.75c4.4,0 8,-3.6 8,-8l0,-59.6c0,-4.4 -3.6,-8 -8,-8l-69.4,0c-4.4,0 -8,3.6 -8,8l0,59.7c0,4.4 3.6,8 8,8l69.4,0l0,-0.1Zm-49.4,-33.8l29.3,0l0,25.8l-29.3,0l0,-25.8Zm37.3,0l12.1,0l0,9.4l-12.1,0l0,-9.4Zm0,-8l0,-9.4l12.1,0l0,9.4l-12.1,0Zm-8,0l-29.3,0l0,-25.8l29.3,0l0,25.8Zm-37.3,0l-12,0l0,-9.4l12.1,0l0,9.4l-0.1,0Zm0,8l0,9.4l-12,0l0,-9.4l12,0Zm-12,17.4l12.1,0l0,8.4l-12.1,0l0,-8.4Zm57.3,8.4l0,-8.4l12.1,0l0,8.4l-12.1,0Zm12.1,-51.2l-12.1,0l0,-8.4l12.1,0l0,8.4Zm-57.4,-8.4l0,8.4l-12,0l0,-8.4l12,0Z" style="fill-rule:nonzero;"/><rect height="8.4" style="fill:#fff;" width="12.1" x="16.194" y="84.35"/><rect height="25.8" style="fill:#d9d9d9;" width="29.3" x="36.194" y="66.95"/><rect height="8.4" style="fill:#fff;" width="12.1" x="73.494" y="84.35"/><rect height="9.4" style="fill:#fff;" width="12.1" x="73.494" y="66.95"/><rect height="9.4" style="fill:#fff;" width="12" x="16.194" y="66.95"/><rect height="9.4" style="fill:#fff;" width="12.1" x="73.494" y="49.55"/><rect height="25.8" style="fill:#d9d9d9;" width="29.3" x="36.194" y="33.15"/><rect height="9.4" style="fill:#fff;" width="12.1" x="16.194" y="49.55"/><rect height="8.4" style="fill:#fff;" width="12.1" x="73.494" y="33.15"/><rect height="8.4" style="fill:#fff;" width="12" x="16.194" y="33.15"/><path d="M16.194,33.15l2.2,0l2,59.6l-4.2,0l0,-59.6Z" style="fill:#020000;fill-opacity:0.199502;"/><path d="M36.294,33.15l2.2,0l2,59.6l-4.2,0l0,-59.6Z" style="fill:#020000;fill-opacity:0.199502;"/><path d="M73.494,33.2l2.2,0l2,59.6l-4.2,0l0,-59.6Z" style="fill:#020000;fill-opacity:0.199502;"/></svg>